<mxfile host="app.diagrams.net" modified="2024-07-18T07:33:21.419Z" agent="Mozilla/5.0 (Windows NT 10.0; Win64; x64; rv:128.0) Gecko/20100101 Firefox/128.0" version="24.7.0" etag="DjHgmGAUMnAbxPeyZxdL" type="github">
  <diagram name="第 1 页" id="4oBsrI9r77LM84leY69k">
    <mxGraphModel>
      <root>
        <mxCell id="0" />
        <mxCell id="1" parent="0" />
      </root>
    </mxGraphModel>
  </diagram>
</mxfile>
